<?xml version="1.0" standalone="no"?>
<!DOCTYPE svg PUBLIC "-//W3C//DTD SVG 20010904//EN"
 "http://www.w3.org/TR/2001/REC-SVG-20010904/DTD/svg10.dtd">
<svg version="1.0" xmlns="http://www.w3.org/2000/svg"
 width="1000.000000pt" height="1000.000000pt" viewBox="0 0 1000.000000 1000.000000"
 preserveAspectRatio="xMidYMid meet">
<metadata>
Created by potrace 1.14, written by Peter Selinger 2001-2017
</metadata>
<g transform="translate(0.000000,1000.000000) scale(0.100000,-0.100000)"
fill="#000000" stroke="none">
<path d="M5035 9992 c-3 -3 -5 -1505 -5 -3339 l0 -3334 -52 39 c-280 205 -659
371 -1039 456 -242 54 -375 68 -669 72 -425 5 -720 -38 -1075 -158 -626 -211
-1118 -607 -1365 -1097 -161 -322 -205 -733 -114 -1083 179 -696 860 -1274
1744 -1482 264 -62 308 -66 761 -66 400 0 424 1 561 25 564 98 1060 333 1422
676 337 318 530 694 564 1099 8 93 13 1193 12 3013 l0 898 68 -59 c132 -113
318 -235 499 -326 132 -66 220 -102 428 -173 482 -164 981 -499 1471 -988 321
-321 517 -576 608 -795 28 -69 31 -84 31 -190 1 -125 10 -156 50 -166 37 -9
109 31 160 89 57 66 137 225 170 342 57 198 69 306 70 610 0 281 -3 336 -30
490 -165 946 -841 2007 -1731 2716 -244 194 -414 308 -739 494 -66 38 -154 91
-195 117 -41 26 -95 59 -120 74 -77 47 -277 191 -373 268 -126 101 -259 237
-315 321 l-47 70 -5 695 -5 695 -367 1 c-202 1 -370 -1 -373 -4z"/>
</g>
</svg>
